<?xml version="1.0" encoding="utf-8"?>
<!-- Generator: Adobe Illustrator 15.0.0, SVG Export Plug-In . SVG Version: 6.00 Build 0)  -->
<!DOCTYPE svg PUBLIC "-//W3C//DTD SVG 1.1//EN" "http://www.w3.org/Graphics/SVG/1.1/DTD/svg11.dtd">
<svg version="1.1" xmlns="http://www.w3.org/2000/svg" xmlns:xlink="http://www.w3.org/1999/xlink" x="0px" y="0px"
	 width="873.77px" height="72.999px" viewBox="0 0 873.77 72.999" enable-background="new 0 0 873.77 72.999" xml:space="preserve">
<g id="schatten_boden">
	<path opacity="0.21" fill="#C6C6C6" d="M235.877,65.033c-5.417,2.5-3.505,5.75-2.23,5.25c1.274-0.5,15.457-1.75,34.973-1
		s27.801,1.75,45.646,2.25c17.844,0.5,26.218,2.25,35.892,0c9.675-2.25,19.145-0.75,26.996,0s11.994,1.992,18.687,1.121
		c6.69-0.871,6.372-2.201,1.911-3.662c-4.461-1.459-3.505-1.459-12.108-2.209s-14.481-3.25-18.712-1.75s-13.383,2.5-16.773,2.75
		s-14.574,0.301-20.195-0.449c-5.622-0.75-8.664,1.02-18.907,1.02c-8.194,0-8.826-4.627-18.844-4.27
		c-1.045,0.037-7.05,3.465-16.713,2.6c-2.79-0.25-3.607-1.598-8.912-2.377C261.281,63.527,235.877,65.033,235.877,65.033z"/>
	<path opacity="0.21" fill="#C6C6C6" d="M256.872,64.879c-5.417,2.5-3.505,5.75-2.23,5.25c1.274-0.5,15.457-1.75,34.973-1
		s27.801,1.75,45.646,2.25s26.219,2.25,35.893,0c9.675-2.25,19.144-0.75,26.995,0s11.994,1.99,18.686,1.119
		c6.691-0.869,6.373-2.201,1.912-3.66s-3.506-1.459-12.109-2.209s-14.479-3.25-18.711-1.75c-4.23,1.5-13.382,2.5-16.772,2.75
		s-14.574,0.299-20.196-0.451c-5.621-0.75-8.664,1.02-18.906,1.02c-8.195,0-8.826-4.627-18.844-4.27
		c-1.045,0.037-7.05,3.467-16.713,2.602c-2.79-0.25-3.607-1.598-8.912-2.377C282.276,63.373,256.872,64.879,256.872,64.879z"/>
	<path opacity="0.21" fill="#C6C6C6" d="M392.357,65.033c-5.417,2.5-3.505,5.75-2.23,5.25s15.457-1.75,34.974-1
		c19.516,0.75,27.801,1.75,45.645,2.25c17.845,0.5,26.219,2.25,35.893,0c9.675-2.25,19.145-0.75,26.996,0s11.994,1.992,18.687,1.121
		c6.69-0.871,6.372-2.201,1.911-3.662c-4.461-1.459-3.505-1.459-12.108-2.209s-14.481-3.25-18.712-1.75s-13.383,2.5-16.773,2.75
		s-14.574,0.301-20.195-0.449c-5.622-0.75-8.664,1.02-18.907,1.02c-8.194,0-8.826-4.627-18.844-4.27
		c-1.045,0.037-7.05,3.465-16.713,2.6c-2.79-0.25-3.606-1.598-8.912-2.377C417.762,63.527,392.357,65.033,392.357,65.033z"/>
	<path opacity="0.21" fill="#C6C6C6" d="M525.885,65.033c-5.417,2.5-3.505,5.75-2.23,5.25s15.457-1.75,34.974-1
		c19.516,0.75,27.801,1.75,45.645,2.25c17.845,0.5,26.219,2.25,35.893,0c9.675-2.25,19.145-0.75,26.996,0s11.994,1.992,18.687,1.121
		c6.69-0.871,6.372-2.201,1.911-3.662c-4.461-1.459-3.505-1.459-12.108-2.209s-14.481-3.25-18.712-1.75s-13.383,2.5-16.773,2.75
		s-14.574,0.301-20.195-0.449c-5.622-0.75-8.664,1.02-18.907,1.02c-8.194,0-8.826-4.627-18.844-4.27
		c-1.045,0.037-7.05,3.465-16.713,2.6c-2.79-0.25-3.606-1.598-8.912-2.377C551.289,63.527,525.885,65.033,525.885,65.033z"/>
	<path opacity="0.21" fill="#C6C6C6" d="M587.144,65.08c-5.417,2.5-3.505,5.75-2.23,5.25s15.457-1.75,34.974-1
		c19.516,0.75,27.801,1.75,45.645,2.25c17.845,0.5,26.219,2.25,35.893,0c9.675-2.25,19.145-0.75,26.996,0s11.994,1.992,18.687,1.121
		c6.69-0.871,6.372-2.201,1.911-3.662c-4.461-1.459-3.505-1.459-12.108-2.209s-14.481-3.25-18.712-1.75s-13.383,2.5-16.773,2.75
		s-14.574,0.301-20.195-0.449c-5.622-0.75-8.664,1.02-18.907,1.02c-8.194,0-8.826-4.627-18.844-4.27
		c-1.045,0.037-7.05,3.465-16.713,2.6c-2.79-0.25-3.606-1.598-8.912-2.377C612.548,63.574,587.144,65.08,587.144,65.08z"/>
	<path opacity="0.21" fill="#C6C6C6" d="M705.524,65.033c-5.417,2.5-3.505,5.75-2.23,5.25s15.457-1.75,34.974-1
		c19.516,0.75,27.801,1.75,45.645,2.25c17.845,0.5,26.219,2.25,35.893,0c9.675-2.25,19.145-0.75,26.996,0s11.994,1.992,18.687,1.121
		c6.69-0.871,6.372-2.201,1.911-3.662c-4.461-1.459-3.505-1.459-12.108-2.209s-14.481-3.25-18.712-1.75s-13.383,2.5-16.773,2.75
		s-14.574,0.301-20.195-0.449c-5.622-0.75-8.664,1.02-18.907,1.02c-8.194,0-8.826-4.627-18.844-4.27
		c-1.045,0.037-7.05,3.465-16.713,2.6c-2.79-0.25-3.606-1.598-8.912-2.377C730.929,63.527,705.524,65.033,705.524,65.033z"/>
	<path opacity="0.21" fill="#C6C6C6" d="M726.52,64.879c-5.418,2.5-3.506,5.75-2.23,5.25c1.273-0.5,15.457-1.75,34.973-1
		s27.801,1.75,45.646,2.25s26.219,2.25,35.893,0c9.675-2.25,19.144-0.75,26.995,0s11.994,1.99,18.686,1.119
		c6.691-0.869,6.373-2.201,1.912-3.66s-3.506-1.459-12.109-2.209s-14.479-3.25-18.711-1.75c-4.23,1.5-13.382,2.5-16.772,2.75
		s-14.574,0.299-20.196-0.451c-5.621-0.75-8.664,1.02-18.906,1.02c-8.195,0-8.826-4.627-18.844-4.27
		c-1.045,0.037-7.051,3.467-16.713,2.602c-2.79-0.25-3.607-1.598-8.912-2.377S726.52,64.879,726.52,64.879z"/>
</g>
<g id="beinchen">
	<path fill="none" stroke="#F8AC00" stroke-width="1.5" stroke-miterlimit="10" d="M233.146,33.614
		c-1.146-3.108,0.249-10.182-1.623-16.218c-3.008-9.702-9.662-17.688-12.898-9.439"/>
	<path fill="none" stroke="#F8AC00" stroke-width="1.5" stroke-miterlimit="10" d="M222.029,33.279
		c-4.901-4.829-22.718-27.98-22.92-12.825"/>
	<line fill="none" stroke="#F8AC00" stroke-miterlimit="10" x1="267.383" y1="54.648" x2="267.716" y2="63.396"/>
	<path fill="none" stroke="#F8AC00" stroke-width="1.5" stroke-miterlimit="10" d="M256.341,47.98
		c0.094,4.629,4.917,16.625-3.292,14.791"/>
	<path fill="none" stroke="#F8AC00" stroke-width="1.5" stroke-miterlimit="10" d="M268.542,51.648
		c-0.094,4.631-4.917,16.625,3.292,14.791"/>
	<path fill="none" stroke="#F8AC00" stroke-width="1.5" stroke-miterlimit="10" d="M279.263,47.98
		c0.094,4.629,4.917,16.625-3.292,14.791"/>
	<path fill="none" stroke="#F8AC00" stroke-width="1.5" stroke-miterlimit="10" d="M294.755,66.439
		c-8.208,1.834-3.385-10.16-3.292-14.791"/>
	<path fill="none" stroke="#F8AC00" stroke-width="1.5" stroke-miterlimit="10" d="M299.263,49.697
		c0.094,4.631,4.917,16.625-3.292,14.793"/>
	<path fill="none" stroke="#F8AC00" stroke-width="1.5" stroke-miterlimit="10" d="M310.966,53.73
		c-0.094,4.629-5.419,16.262,2.789,14.428"/>
	<path fill="none" stroke="#F8AC00" stroke-width="1.5" stroke-miterlimit="10" d="M321.313,49.697
		c0.094,4.631,4.917,16.625-3.292,14.793"/>
	<path fill="none" stroke="#F8AC00" stroke-width="1.5" stroke-miterlimit="10" d="M335.805,68.158
		c-8.208,1.834-2.883-9.799-2.789-14.428"/>
	<path fill="none" stroke="#F8AC00" stroke-width="1.5" stroke-miterlimit="10" d="M342.492,49.813
		c0.094,4.629,4.917,16.625-3.292,14.791"/>
	<path fill="none" stroke="#F8AC00" stroke-width="1.5" stroke-miterlimit="10" d="M356.984,68.271
		c-8.208,1.834-2.883-9.799-2.789-14.428"/>
	<path fill="none" stroke="#F8AC00" stroke-width="1.5" stroke-miterlimit="10" d="M365.679,49.785
		c0.094,4.631,4.916,16.625-3.293,14.791"/>
	<path fill="none" stroke="#F8AC00" stroke-width="1.5" stroke-miterlimit="10" d="M380.171,68.246
		c-8.209,1.834-2.883-9.799-2.789-14.43"/>
	<path fill="none" stroke="#F8AC00" stroke-width="1.5" stroke-miterlimit="10" d="M389.632,49.9
		c0.094,4.629,4.917,16.625-3.293,14.791"/>
	<path fill="none" stroke="#F8AC00" stroke-width="1.5" stroke-miterlimit="10" d="M404.122,68.361
		c-8.206,1.832-2.883-9.799-2.789-14.43"/>
	<line fill="none" stroke="#F8AC00" stroke-miterlimit="10" x1="423.863" y1="54.648" x2="424.196" y2="63.396"/>
	<path fill="none" stroke="#F8AC00" stroke-width="1.5" stroke-miterlimit="10" d="M412.821,47.98
		c0.094,4.629,4.917,16.625-3.291,14.791"/>
	<path fill="none" stroke="#F8AC00" stroke-width="1.5" stroke-miterlimit="10" d="M425.022,51.648
		c-0.094,4.631-4.918,16.625,3.291,14.791"/>
	<path fill="none" stroke="#F8AC00" stroke-width="1.5" stroke-miterlimit="10" d="M435.743,47.98
		c0.094,4.629,4.918,16.625-3.291,14.791"/>
	<path fill="none" stroke="#F8AC00" stroke-width="1.5" stroke-miterlimit="10" d="M451.235,66.439
		c-8.208,1.834-3.385-10.16-3.291-14.791"/>
	<path fill="none" stroke="#F8AC00" stroke-width="1.5" stroke-miterlimit="10" d="M455.743,49.697
		c0.094,4.631,4.917,16.625-3.291,14.793"/>
	<path fill="none" stroke="#F8AC00" stroke-width="1.5" stroke-miterlimit="10" d="M467.446,53.73
		c-0.094,4.629-5.42,16.262,2.789,14.428"/>
	<path fill="none" stroke="#F8AC00" stroke-width="1.5" stroke-miterlimit="10" d="M477.793,49.697
		c0.094,4.631,4.917,16.625-3.292,14.793"/>
	<path fill="none" stroke="#F8AC00" stroke-width="1.5" stroke-miterlimit="10" d="M492.285,68.158
		c-8.208,1.834-2.883-9.799-2.789-14.428"/>
	<path fill="none" stroke="#F8AC00" stroke-width="1.5" stroke-miterlimit="10" d="M498.973,49.813
		c0.094,4.629,4.917,16.625-3.292,14.791"/>
	<path fill="none" stroke="#F8AC00" stroke-width="1.5" stroke-miterlimit="10" d="M513.465,68.271
		c-8.208,1.834-2.883-9.799-2.789-14.428"/>
	<path fill="none" stroke="#F8AC00" stroke-width="1.5" stroke-miterlimit="10" d="M522.159,49.785
		c0.094,4.631,4.916,16.625-3.293,14.791"/>
	<path fill="none" stroke="#F8AC00" stroke-width="1.5" stroke-miterlimit="10" d="M536.651,68.246
		c-8.209,1.834-2.883-9.799-2.789-14.43"/>
	<path fill="none" stroke="#F8AC00" stroke-width="1.5" stroke-miterlimit="10" d="M546.112,49.9
		c0.094,4.629,4.917,16.625-3.293,14.791"/>
	<path fill="none" stroke="#F8AC00" stroke-width="1.5" stroke-miterlimit="10" d="M560.603,68.361
		c-8.206,1.832-2.883-9.799-2.789-14.43"/>
	<path fill="none" stroke="#F8AC00" stroke-width="1.5" stroke-miterlimit="10" d="M569.271,47.98
		c0.094,4.629,4.918,16.625-3.291,14.791"/>
	<path fill="none" stroke="#F8AC00" stroke-width="1.5" stroke-miterlimit="10" d="M584.763,66.439
		c-8.208,1.834-3.385-10.16-3.291-14.791"/>
	<path fill="none" stroke="#F8AC00" stroke-width="1.5" stroke-miterlimit="10" d="M589.271,49.697
		c0.094,4.631,4.917,16.625-3.291,14.793"/>
	<path fill="none" stroke="#F8AC00" stroke-width="1.5" stroke-miterlimit="10" d="M600.974,53.73
		c-0.094,4.629-5.42,16.262,2.789,14.428"/>
	<path fill="none" stroke="#F8AC00" stroke-width="1.5" stroke-miterlimit="10" d="M611.32,49.697
		c0.094,4.631,4.917,16.625-3.292,14.793"/>
	<path fill="none" stroke="#F8AC00" stroke-width="1.5" stroke-miterlimit="10" d="M625.813,68.158
		c-8.208,1.834-2.883-9.799-2.789-14.428"/>
	<path fill="none" stroke="#F8AC00" stroke-width="1.5" stroke-miterlimit="10" d="M632.5,49.813
		c0.094,4.629,4.917,16.625-3.292,14.791"/>
	<path fill="none" stroke="#F8AC00" stroke-width="1.5" stroke-miterlimit="10" d="M646.992,68.271
		c-8.208,1.834-2.883-9.799-2.789-14.428"/>
	<path fill="none" stroke="#F8AC00" stroke-width="1.5" stroke-miterlimit="10" d="M655.687,49.785
		c0.094,4.631,4.916,16.625-3.293,14.791"/>
	<path fill="none" stroke="#F8AC00" stroke-width="1.5" stroke-miterlimit="10" d="M670.179,68.246
		c-8.209,1.834-2.883-9.799-2.789-14.43"/>
	<path fill="none" stroke="#F8AC00" stroke-width="1.5" stroke-miterlimit="10" d="M679.64,49.9
		c0.094,4.629,4.917,16.625-3.293,14.791"/>
	<path fill="none" stroke="#F8AC00" stroke-width="1.5" stroke-miterlimit="10" d="M694.13,68.361
		c-8.206,1.832-2.883-9.799-2.789-14.43"/>
	<path fill="none" stroke="#F8AC00" stroke-width="1.5" stroke-miterlimit="10" d="M701.799,49.785
		c0.094,4.631,4.916,16.625-3.293,14.791"/>
	<path fill="none" stroke="#F8AC00" stroke-width="1.5" stroke-miterlimit="10" d="M716.291,68.246
		c-8.209,1.834-2.883-9.799-2.789-14.43"/>
	<path fill="none" stroke="#F8AC00" stroke-width="1.5" stroke-miterlimit="10" d="M725.752,49.9
		c0.094,4.629,4.917,16.625-3.293,14.791"/>
	<path fill="none" stroke="#F8AC00" stroke-width="1.5" stroke-miterlimit="10" d="M740.242,68.361
		c-8.206,1.832-2.883-9.799-2.789-14.43"/>
	<path fill="none" stroke="#F8AC00" stroke-width="1.5" stroke-miterlimit="10" d="M748.91,47.98
		c0.094,4.629,4.918,16.625-3.291,14.791"/>
	<path fill="none" stroke="#F8AC00" stroke-width="1.5" stroke-miterlimit="10" d="M764.402,66.439
		c-8.208,1.834-3.385-10.16-3.291-14.791"/>
	<path fill="none" stroke="#F8AC00" stroke-width="1.5" stroke-miterlimit="10" d="M768.91,49.697
		c0.094,4.631,4.917,16.625-3.291,14.793"/>
	<path fill="none" stroke="#F8AC00" stroke-width="1.5" stroke-miterlimit="10" d="M780.613,53.73
		c-0.094,4.629-5.42,16.262,2.789,14.428"/>
	<path fill="none" stroke="#F8AC00" stroke-width="1.5" stroke-miterlimit="10" d="M790.96,49.697
		c0.094,4.631,4.917,16.625-3.292,14.793"/>
	<path fill="none" stroke="#F8AC00" stroke-width="1.5" stroke-miterlimit="10" d="M805.452,68.158
		c-8.208,1.834-2.883-9.799-2.789-14.428"/>
	<path fill="none" stroke="#F8AC00" stroke-width="1.5" stroke-miterlimit="10" d="M812.14,49.813
		c0.094,4.629,4.917,16.625-3.292,14.791"/>
	<path fill="none" stroke="#F8AC00" stroke-width="1.5" stroke-miterlimit="10" d="M826.632,68.271
		c-8.208,1.834-2.883-9.799-2.789-14.428"/>
	<path fill="none" stroke="#F8AC00" stroke-width="1.5" stroke-miterlimit="10" d="M835.326,49.785
		c0.094,4.631,4.916,16.625-3.293,14.791"/>
	<path fill="none" stroke="#F8AC00" stroke-width="1.5" stroke-miterlimit="10" d="M849.818,68.246
		c-8.209,1.834-2.883-9.799-2.789-14.43"/>
	<path fill="none" stroke="#F8AC00" stroke-width="1.5" stroke-miterlimit="10" d="M859.279,49.9
		c0.094,4.629,4.917,16.625-3.293,14.791"/>
	<path fill="none" stroke="#F8AC00" stroke-width="1.5" stroke-miterlimit="10" d="M873.77,68.361
		c-8.206,1.832-2.883-9.799-2.789-14.43"/>
</g>
<g id="orange_körper">
	<path fill="#F8AC00" d="M276.57,30.648h14.608c0,0,3.145,2.832,2.971,12.666c-0.136,7.711-2.667,11.334-2.667,11.334H276.57
		c0,0,1.225,0.332,0.975-12.334C277.361,32.978,276.57,30.648,276.57,30.648z"/>
	<path fill="#F8AC00" d="M296.57,30.981h14.608c0,0,3.145,2.833,2.971,12.667c-0.135,7.711-2.666,11.333-2.666,11.333H296.57
		c0,0,1.225,0.334,0.975-12.333C297.361,33.312,296.57,30.981,296.57,30.981z"/>
	<path fill="#F8AC00" d="M315.673,30.982h17.883c0,0,3.85,2.833,3.637,12.666c-0.166,7.711-3.264,11.334-3.264,11.334h-18.256
		c0,0,3.189-2.336,3.131-12.334C318.749,33.312,315.673,30.982,315.673,30.982z"/>
	<path fill="#F8AC00" d="M252.042,30.982h17.883c0,0,3.85,2.833,3.637,12.666c-0.165,7.711-3.264,11.334-3.264,11.334h-18.256
		c0,0,3.189-2.336,3.131-12.334C255.119,33.312,252.042,30.982,252.042,30.982z"/>
	<path fill="#F8AC00" d="M338.2,30.982h17.883c0,0,3.85,2.833,3.637,12.666c-0.164,7.711-3.264,11.334-3.264,11.334H338.2
		c0,0,3.189-2.336,3.131-12.334C341.276,33.312,338.2,30.982,338.2,30.982z"/>
	<path fill="#F8AC00" d="M361.386,30.956h17.883c0,0,3.85,2.833,3.637,12.667c-0.164,7.711-3.264,11.333-3.264,11.333h-18.256
		c0,0,3.189-2.334,3.131-12.333C364.462,33.285,361.386,30.956,361.386,30.956z"/>
	<path fill="#F8AC00" d="M385.339,31.07h17.883c0,0,3.85,2.834,3.637,12.667c-0.164,7.71-3.264,11.333-3.264,11.333h-18.256
		c0,0,3.189-2.336,3.131-12.334C388.415,33.4,385.339,31.07,385.339,31.07z"/>
	<path fill="#F8AC00" d="M433.051,30.648h14.608c0,0,3.145,2.832,2.971,12.666c-0.136,7.711-2.666,11.334-2.666,11.334h-14.913
		c0,0,1.226,0.332,0.976-12.334C433.842,32.978,433.051,30.648,433.051,30.648z"/>
	<path fill="#F8AC00" d="M453.051,30.981h14.608c0,0,3.145,2.833,2.971,12.667c-0.135,7.711-2.666,11.333-2.666,11.333h-14.913
		c0,0,1.226,0.334,0.976-12.333C453.842,33.312,453.051,30.981,453.051,30.981z"/>
	<path fill="#F8AC00" d="M472.153,30.982h17.883c0,0,3.85,2.833,3.637,12.666c-0.166,7.711-3.264,11.334-3.264,11.334h-18.256
		c0,0,3.189-2.336,3.131-12.334C475.229,33.312,472.153,30.982,472.153,30.982z"/>
	<path fill="#F8AC00" d="M408.522,30.982h17.883c0,0,3.85,2.833,3.637,12.666c-0.164,7.711-3.264,11.334-3.264,11.334h-18.256
		c0,0,3.189-2.336,3.131-12.334C411.599,33.312,408.522,30.982,408.522,30.982z"/>
	<path fill="#F8AC00" d="M494.681,30.982h17.883c0,0,3.85,2.833,3.637,12.666c-0.164,7.711-3.264,11.334-3.264,11.334h-18.256
		c0,0,3.189-2.336,3.131-12.334C497.757,33.312,494.681,30.982,494.681,30.982z"/>
	<path fill="#F8AC00" d="M517.866,30.956h17.883c0,0,3.85,2.833,3.637,12.667c-0.164,7.711-3.264,11.333-3.264,11.333h-18.256
		c0,0,3.189-2.334,3.131-12.333C520.942,33.285,517.866,30.956,517.866,30.956z"/>
	<path fill="#F8AC00" d="M541.819,31.07h17.883c0,0,3.85,2.834,3.637,12.667c-0.164,7.71-3.264,11.333-3.264,11.333h-18.256
		c0,0,3.189-2.336,3.131-12.334C544.896,33.4,541.819,31.07,541.819,31.07z"/>
	<path fill="#F8AC00" d="M566.578,30.648h14.608c0,0,3.145,2.832,2.971,12.666c-0.136,7.711-2.666,11.334-2.666,11.334h-14.913
		c0,0,1.226,0.332,0.976-12.334C567.369,32.978,566.578,30.648,566.578,30.648z"/>
	<path fill="#F8AC00" d="M586.578,30.981h14.608c0,0,3.145,2.833,2.971,12.667c-0.135,7.711-2.666,11.333-2.666,11.333h-14.913
		c0,0,1.226,0.334,0.976-12.333C587.369,33.312,586.578,30.981,586.578,30.981z"/>
	<path fill="#F8AC00" d="M605.681,30.982h17.883c0,0,3.85,2.833,3.637,12.666c-0.166,7.711-3.264,11.334-3.264,11.334h-18.256
		c0,0,3.189-2.336,3.131-12.334C608.757,33.312,605.681,30.982,605.681,30.982z"/>
	<path fill="#F8AC00" d="M628.208,30.982h17.883c0,0,3.85,2.833,3.637,12.666c-0.164,7.711-3.264,11.334-3.264,11.334h-18.256
		c0,0,3.189-2.336,3.131-12.334C631.284,33.312,628.208,30.982,628.208,30.982z"/>
	<path fill="#F8AC00" d="M651.394,30.956h17.883c0,0,3.85,2.833,3.637,12.667c-0.164,7.711-3.264,11.333-3.264,11.333h-18.256
		c0,0,3.189-2.334,3.131-12.333C654.47,33.285,651.394,30.956,651.394,30.956z"/>
	<path fill="#F8AC00" d="M675.347,31.07h17.883c0,0,3.85,2.834,3.637,12.667c-0.164,7.71-3.264,11.333-3.264,11.333h-18.256
		c0,0,3.189-2.336,3.131-12.334C678.423,33.4,675.347,31.07,675.347,31.07z"/>
	<path fill="#F8AC00" d="M227.669,31.146c-6.575,0.64-15.624,7.733-15.276,14.415c0.49,9.422,10.656,9.422,10.656,9.422h24.25
		c0,0,2.829-0.744,3.341-11.833c0.385-8.333-3.998-11.972-3.998-11.972"/>
	<path fill="#F8AC00" d="M697.506,30.956h17.883c0,0,3.85,2.833,3.637,12.667c-0.164,7.711-3.264,11.333-3.264,11.333h-18.256
		c0,0,3.189-2.334,3.131-12.333C700.582,33.285,697.506,30.956,697.506,30.956z"/>
	<path fill="#F8AC00" d="M721.459,31.07h17.883c0,0,3.85,2.834,3.637,12.667c-0.164,7.71-3.264,11.333-3.264,11.333h-18.256
		c0,0,3.189-2.336,3.131-12.334C724.535,33.4,721.459,31.07,721.459,31.07z"/>
	<path fill="#F8AC00" d="M746.218,30.648h14.608c0,0,3.145,2.832,2.971,12.666c-0.136,7.711-2.666,11.334-2.666,11.334h-14.913
		c0,0,1.226,0.332,0.976-12.334C747.009,32.978,746.218,30.648,746.218,30.648z"/>
	<path fill="#F8AC00" d="M766.218,30.981h14.608c0,0,3.145,2.833,2.971,12.667c-0.135,7.711-2.666,11.333-2.666,11.333h-14.913
		c0,0,1.226,0.334,0.976-12.333C767.009,33.312,766.218,30.981,766.218,30.981z"/>
	<path fill="#F8AC00" d="M785.32,30.982h17.883c0,0,3.85,2.833,3.637,12.666c-0.166,7.711-3.264,11.334-3.264,11.334H785.32
		c0,0,3.189-2.336,3.131-12.334C788.396,33.312,785.32,30.982,785.32,30.982z"/>
	<path fill="#F8AC00" d="M807.848,30.982h17.883c0,0,3.85,2.833,3.637,12.666c-0.164,7.711-3.264,11.334-3.264,11.334h-18.256
		c0,0,3.189-2.336,3.131-12.334C810.924,33.312,807.848,30.982,807.848,30.982z"/>
	<path fill="#F8AC00" d="M831.033,30.956h17.883c0,0,3.85,2.833,3.637,12.667c-0.164,7.711-3.264,11.333-3.264,11.333h-18.256
		c0,0,3.189-2.334,3.131-12.333C834.109,33.285,831.033,30.956,831.033,30.956z"/>
	<path fill="#F8AC00" d="M854.986,31.07h17.883c0,0,3.85,2.834,3.637,12.667c-0.164,7.71-3.264,11.333-3.264,11.333h-18.256
		c0,0,3.189-2.336,3.131-12.334C858.063,33.4,854.986,31.07,854.986,31.07z"/>
</g>
<g id="Ebene_1">
	<g>
		<rect x="125.692" y="60.922" fill="none" width="84.876" height="11.414"/>
		<path fill="#F8AC00" d="M133.332,69.682v-4.414c0-0.576-0.264-0.875-0.768-0.875c-0.54,0-0.959,0.348-1.583,0.923v4.366h-0.947
			v-4.246c0-0.359-0.036-0.6-0.168-0.768c-0.144-0.168-0.336-0.24-0.612-0.24c-0.456,0-0.899,0.229-1.523,0.792v4.462h-0.9v-4.63
			c0-0.864-0.216-1.271-0.216-1.271l0.912-0.216c0,0,0.216,0.468,0.216,0.888c0.396-0.444,1.127-0.899,1.739-0.899
			c0.587,0,1.175,0.359,1.391,0.995c0.576-0.611,1.307-0.995,1.919-0.995c0.888,0,1.499,0.672,1.499,1.619v4.51H133.332z"/>
		<path fill="#F8AC00" d="M137.08,62.594c-0.408,0-0.731-0.324-0.731-0.721c0-0.407,0.324-0.743,0.731-0.743
			s0.731,0.323,0.731,0.731S137.487,62.594,137.08,62.594z M136.576,69.682v-5.949l0.972-0.156v6.105H136.576z"/>
		<path fill="#F8AC00" d="M140.763,69.801c-0.288,0-0.528-0.084-0.708-0.252c-0.192-0.168-0.288-0.42-0.288-0.852v-6.332
			c0-0.779-0.144-1.224-0.144-1.224l0.936-0.18c0,0,0.156,0.504,0.156,1.415v6.105c0,0.467,0.072,0.6,0.336,0.6
			c0.036,0,0.12-0.024,0.12-0.024l0.192,0.611C141.123,69.777,141.015,69.801,140.763,69.801z"/>
		<path fill="#F8AC00" d="M143.872,69.801c-0.288,0-0.528-0.084-0.708-0.252c-0.192-0.168-0.288-0.42-0.288-0.852v-6.332
			c0-0.779-0.144-1.224-0.144-1.224l0.936-0.18c0,0,0.156,0.504,0.156,1.415v6.105c0,0.467,0.072,0.6,0.336,0.6
			c0.036,0,0.12-0.024,0.12-0.024l0.192,0.611C144.231,69.777,144.124,69.801,143.872,69.801z"/>
		<path fill="#F8AC00" d="M146.764,66.851v0.144c0,0.564,0.072,0.996,0.276,1.308c0.336,0.516,0.888,0.731,1.487,0.731
			c0.576,0,1.043-0.18,1.463-0.563l0.359,0.6c-0.527,0.479-1.247,0.743-2.015,0.743c-1.655,0-2.65-1.199-2.65-3.178
			c0-1.008,0.216-1.655,0.719-2.255c0.48-0.563,1.067-0.827,1.787-0.827c0.648,0,1.211,0.228,1.619,0.647
			c0.516,0.528,0.684,1.091,0.684,2.519v0.132H146.764z M149.223,64.813c-0.204-0.324-0.624-0.528-1.08-0.528
			c-0.852,0-1.332,0.624-1.379,1.858h2.734C149.486,65.496,149.402,65.1,149.223,64.813z"/>
		<path fill="#F8AC00" d="M159.481,68.746c-0.432,0.695-1.067,1.091-1.847,1.091c-0.611,0-1.223-0.264-1.643-0.695v2.854
			l-0.936,0.18v-7.172c0-0.912-0.132-1.283-0.132-1.283l0.959-0.168c0,0,0.06,0.252,0.06,0.911c0.492-0.575,1.104-0.876,1.763-0.876
			c0.611,0,1.211,0.265,1.595,0.744c0.443,0.552,0.659,1.283,0.659,2.351C159.961,67.643,159.817,68.193,159.481,68.746z
			 M158.69,65.088c-0.192-0.408-0.624-0.66-1.104-0.66c-0.6,0-1.139,0.288-1.595,0.84v3.01c0.444,0.504,0.959,0.78,1.463,0.78
			c0.552,0,1.055-0.3,1.259-0.743c0.18-0.385,0.252-0.84,0.252-1.512C158.966,66.083,158.858,65.447,158.69,65.088z"/>
		<path fill="#F8AC00" d="M165.866,69.909c-0.408-0.132-0.708-0.456-0.815-0.876c-0.576,0.576-1.043,0.804-1.727,0.804
			c-1.475,0-1.919-0.899-1.919-1.703c0-1.354,1.163-2.146,3.166-2.146c0.252,0,0.42,0.012,0.42,0.012V65.58
			c0-0.528-0.024-0.744-0.192-0.936c-0.192-0.217-0.432-0.324-0.804-0.324c-0.671,0-1.523,0.359-1.907,0.707l-0.468-0.672
			c0.792-0.527,1.643-0.803,2.506-0.803c0.828,0,1.403,0.324,1.655,0.936c0.132,0.324,0.144,0.779,0.132,1.318l-0.048,1.968
			c-0.024,0.972,0.036,1.224,0.48,1.463L165.866,69.909z M164.499,66.623c-1.511,0-2.051,0.516-2.051,1.427
			c0,0.708,0.348,1.092,1.031,1.092c0.612,0,1.175-0.372,1.451-0.936l0.036-1.56C164.811,66.635,164.667,66.623,164.499,66.623z"/>
		<path fill="#F8AC00" d="M170.342,64.416h-1.247v3.85c0,0.66,0.18,0.888,0.768,0.888c0.264,0,0.419-0.036,0.587-0.12l0.132,0.6
			c-0.3,0.156-0.635,0.24-1.055,0.24c-0.312,0-0.552-0.061-0.78-0.168c-0.419-0.203-0.576-0.588-0.576-1.188v-4.102h-0.779v-0.707
			h0.779c0-0.576,0.096-1.512,0.096-1.512l0.983-0.216c0,0-0.12,0.936-0.12,1.728h1.5L170.342,64.416z"/>
		<path fill="#F8AC00" d="M174.182,64.416h-1.247v3.85c0,0.66,0.18,0.888,0.768,0.888c0.264,0,0.419-0.036,0.587-0.12l0.132,0.6
			c-0.3,0.156-0.635,0.24-1.055,0.24c-0.312,0-0.552-0.061-0.78-0.168c-0.419-0.203-0.576-0.588-0.576-1.188v-4.102h-0.779v-0.707
			h0.779c0-0.576,0.096-1.512,0.096-1.512l0.983-0.216c0,0-0.12,0.936-0.12,1.728h1.5L174.182,64.416z"/>
		<path fill="#F8AC00" d="M176.511,66.851v0.144c0,0.564,0.072,0.996,0.276,1.308c0.336,0.516,0.888,0.731,1.487,0.731
			c0.576,0,1.043-0.18,1.463-0.563l0.36,0.6c-0.527,0.479-1.247,0.743-2.015,0.743c-1.655,0-2.65-1.199-2.65-3.178
			c0-1.008,0.216-1.655,0.719-2.255c0.48-0.563,1.067-0.827,1.787-0.827c0.647,0,1.211,0.228,1.619,0.647
			c0.516,0.528,0.684,1.091,0.684,2.519v0.132H176.511z M178.97,64.813c-0.204-0.324-0.624-0.528-1.079-0.528
			c-0.852,0-1.332,0.624-1.379,1.858h2.734C179.234,65.496,179.15,65.1,178.97,64.813z"/>
		<path fill="#F8AC00" d="M183.699,69.861c-0.756,0-1.583-0.229-2.195-0.6l0.36-0.695c0.612,0.371,1.235,0.563,1.895,0.563
			c0.731,0,1.211-0.395,1.211-1.031c0-0.539-0.3-0.84-0.983-0.982l-0.743-0.156c-0.984-0.204-1.511-0.816-1.511-1.644
			c0-1.079,0.875-1.835,2.123-1.835c0.624,0,1.319,0.191,1.823,0.48l-0.348,0.695c-0.527-0.252-0.971-0.432-1.499-0.432
			c-0.684,0-1.127,0.396-1.127,0.982c0,0.457,0.228,0.732,0.864,0.864l0.792,0.168c1.079,0.228,1.595,0.779,1.595,1.667
			C185.954,69.069,185.042,69.861,183.699,69.861z"/>
		<path fill="#F8AC00" d="M191.115,66.851v0.144c0,0.564,0.072,0.996,0.276,1.308c0.336,0.516,0.888,0.731,1.487,0.731
			c0.576,0,1.043-0.18,1.463-0.563l0.359,0.6c-0.527,0.479-1.247,0.743-2.015,0.743c-1.655,0-2.65-1.199-2.65-3.178
			c0-1.008,0.216-1.655,0.719-2.255c0.48-0.563,1.067-0.827,1.787-0.827c0.648,0,1.211,0.228,1.619,0.647
			c0.516,0.528,0.684,1.091,0.684,2.519v0.132H191.115z M193.574,64.813c-0.204-0.324-0.624-0.528-1.08-0.528
			c-0.852,0-1.332,0.624-1.379,1.858h2.734C193.838,65.496,193.754,65.1,193.574,64.813z"/>
		<path fill="#F8AC00" d="M197.223,69.837c-0.456,0-0.815-0.372-0.815-0.827c0-0.443,0.348-0.792,0.792-0.792
			c0.456,0,0.816,0.349,0.816,0.792C198.015,69.465,197.655,69.837,197.223,69.837z"/>
		<path fill="#F8AC00" d="M202.838,69.682h-0.972l-2.771-8.229h1.067l1.739,5.302c0.24,0.72,0.443,1.595,0.479,1.835
			c0.048-0.204,0.216-0.828,0.504-1.715l1.763-5.422h1.008L202.838,69.682z"/>
		<path fill="#F8AC00" d="M206.354,69.837c-0.455,0-0.815-0.372-0.815-0.827c0-0.443,0.348-0.792,0.792-0.792
			c0.455,0,0.815,0.349,0.815,0.792C207.146,69.465,206.786,69.837,206.354,69.837z"/>
	</g>
	<path fill="#FFFFFF" d="M222.778,55.65c0,0,2.354-0.984,4.729-3.629c1.946-2.166,1.594-5.066,3.021-5.189
		c1.376-0.119,1.708,2.314,0.71,4.982c-0.881,2.355-3.146,4.656-3.146,4.656L222.778,55.65z"/>
	<ellipse fill="#FFFFFF" cx="226.001" cy="39.396" rx="3.321" ry="3.667"/>
	<path fill="#FFFFFF" stroke="#F8AC00" stroke-miterlimit="10" d="M219.133,38.99c-0.806,2.414-2.221,3.291-3.84,3.291
		c-1.62,0-2.549-1.959-1.857-3.705c1.213-3.059,3.889-4.168,5.19-3.469C220.299,36.007,219.721,37.23,219.133,38.99z"/>
	<ellipse fill="#F8AC00" cx="226.046" cy="40.599" rx="1.695" ry="1.608"/>
	<ellipse fill="#F8AC00" cx="215.614" cy="39.396" rx="1.517" ry="1.439"/>
</g>
<g id="schatten_körper">
	<path opacity="0.25" fill="#9B6000" d="M254.929,47.313h18.311c0,0-0.083,1.246-1.047,3.709c-0.947,2.42-1.405,3.271-1.405,3.271
		h-18.123c0,0,0.732-1.023,1.593-3.605C254.966,48.564,254.929,47.313,254.929,47.313z"/>
	<path opacity="0.25" fill="#9B6000" d="M234.383,47.258h15.513c0,0-0.067,0.945-0.547,3.834c-0.423,2.545-1.172,3.258-1.172,3.258
		l-15.794-0.057c0,0,1.141-0.564,1.833-3.146C234.785,49.023,234.383,47.258,234.383,47.258z"/>
	<path opacity="0.25" fill="#9B6000" d="M340.94,47.313h18.311c0,0-0.082,1.246-1.047,3.709c-0.947,2.42-1.404,3.271-1.404,3.271
		h-18.123c0,0,0.732-1.023,1.594-3.605C340.978,48.564,340.94,47.313,340.94,47.313z"/>
	<path opacity="0.25" fill="#9B6000" d="M364.126,47.287h18.311c0,0-0.082,1.244-1.047,3.707c-0.947,2.42-1.404,3.271-1.404,3.271
		h-18.123c0,0,0.732-1.021,1.594-3.604C364.163,48.537,364.126,47.287,364.126,47.287z"/>
	<path opacity="0.25" fill="#9B6000" d="M388.079,48.393h18.311c0,0-0.082,1.244-1.047,3.707c-0.947,2.42-1.404,3.271-1.404,3.271
		h-18.123c0,0,0.732-1.021,1.594-3.605C388.116,49.643,388.079,48.393,388.079,48.393z"/>
	<path opacity="0.25" fill="#9B6000" d="M318.89,47.313H337.2c0,0-0.084,1.246-1.047,3.709c-0.947,2.42-1.406,3.271-1.406,3.271
		h-18.122c0,0,0.731-1.023,1.593-3.605C318.927,48.564,318.89,47.313,318.89,47.313z"/>
	<path opacity="0.25" fill="#9B6000" d="M297.57,47.313h16.354c0,0-0.186,0.844-0.834,3.668c-0.582,2.531-1.092,3.078-1.092,3.078
		l-14.825,0.004c0,0-0.191,0.23,0.277-3.26C297.749,48.584,297.57,47.313,297.57,47.313z"/>
	<path opacity="0.25" fill="#9B6000" d="M277.403,47.313h16.354c0,0-0.186,0.844-0.834,3.668c-0.582,2.531-1.092,3.078-1.092,3.078
		l-14.825,0.004c0,0-0.191,0.23,0.277-3.26C277.582,48.584,277.403,47.313,277.403,47.313z"/>
	<path opacity="0.25" fill="#9B6000" d="M411.409,47.313h18.311c0,0-0.083,1.246-1.047,3.709c-0.947,2.42-1.405,3.271-1.405,3.271
		h-18.122c0,0,0.731-1.023,1.593-3.605C411.446,48.564,411.409,47.313,411.409,47.313z"/>
	<path opacity="0.25" fill="#9B6000" d="M497.421,47.313h18.311c0,0-0.082,1.246-1.047,3.709c-0.947,2.42-1.404,3.271-1.404,3.271
		h-18.123c0,0,0.732-1.023,1.594-3.605C497.458,48.564,497.421,47.313,497.421,47.313z"/>
	<path opacity="0.25" fill="#9B6000" d="M520.606,47.287h18.311c0,0-0.082,1.244-1.047,3.707c-0.947,2.42-1.404,3.271-1.404,3.271
		h-18.123c0,0,0.732-1.021,1.594-3.604C520.644,48.537,520.606,47.287,520.606,47.287z"/>
	<path opacity="0.25" fill="#9B6000" d="M544.56,47.402h18.311c0,0-0.082,1.244-1.047,3.707c-0.947,2.42-1.404,3.271-1.404,3.271
		h-18.123c0,0,0.732-1.021,1.594-3.605C544.597,48.652,544.56,47.402,544.56,47.402z"/>
	<path opacity="0.25" fill="#9B6000" d="M475.37,47.313h18.311c0,0-0.084,1.246-1.047,3.709c-0.947,2.42-1.406,3.271-1.406,3.271
		h-18.122c0,0,0.731-1.023,1.593-3.605C475.407,48.564,475.37,47.313,475.37,47.313z"/>
	<path opacity="0.25" fill="#9B6000" d="M454.051,47.313h16.354c0,0-0.186,0.844-0.834,3.668c-0.582,2.531-1.092,3.078-1.092,3.078
		l-14.824,0.004c0,0-0.191,0.23,0.276-3.26C454.229,48.584,454.051,47.313,454.051,47.313z"/>
	<path opacity="0.25" fill="#9B6000" d="M433.884,47.313h16.354c0,0-0.186,0.844-0.834,3.668c-0.582,2.531-1.092,3.078-1.092,3.078
		l-14.825,0.004c0,0-0.19,0.23,0.277-3.26C434.062,48.584,433.884,47.313,433.884,47.313z"/>
	<path opacity="0.25" fill="#9B6000" d="M630.948,47.313h18.311c0,0-0.082,1.246-1.047,3.709c-0.947,2.42-1.404,3.271-1.404,3.271
		h-18.123c0,0,0.732-1.023,1.594-3.605C630.985,48.564,630.948,47.313,630.948,47.313z"/>
	<path opacity="0.25" fill="#9B6000" d="M654.134,47.287h18.311c0,0-0.082,1.244-1.047,3.707c-0.947,2.42-1.404,3.271-1.404,3.271
		H651.87c0,0,0.732-1.021,1.594-3.604C654.171,48.537,654.134,47.287,654.134,47.287z"/>
	<path opacity="0.25" fill="#9B6000" d="M678.087,47.402h18.311c0,0-0.082,1.244-1.047,3.707c-0.947,2.42-1.404,3.271-1.404,3.271
		h-18.123c0,0,0.732-1.021,1.594-3.605C678.124,48.652,678.087,47.402,678.087,47.402z"/>
	<path opacity="0.25" fill="#9B6000" d="M608.897,47.313h18.311c0,0-0.084,1.246-1.047,3.709c-0.947,2.42-1.406,3.271-1.406,3.271
		h-18.122c0,0,0.731-1.023,1.593-3.605C608.935,48.564,608.897,47.313,608.897,47.313z"/>
	<path opacity="0.25" fill="#9B6000" d="M587.578,47.313h16.354c0,0-0.186,0.844-0.834,3.668c-0.582,2.531-1.092,3.078-1.092,3.078
		l-14.824,0.004c0,0-0.191,0.23,0.276-3.26C587.757,48.584,587.578,47.313,587.578,47.313z"/>
	<path opacity="0.25" fill="#9B6000" d="M567.411,47.313h16.354c0,0-0.186,0.844-0.834,3.668c-0.582,2.531-1.092,3.078-1.092,3.078
		l-14.825,0.004c0,0-0.19,0.23,0.277-3.26C567.589,48.584,567.411,47.313,567.411,47.313z"/>
	<path opacity="0.25" fill="#9B6000" d="M700.246,47.287h18.311c0,0-0.082,1.244-1.047,3.707c-0.947,2.42-1.404,3.271-1.404,3.271
		h-18.123c0,0,0.732-1.021,1.594-3.604C700.283,48.537,700.246,47.287,700.246,47.287z"/>
	<path opacity="0.25" fill="#9B6000" d="M724.199,47.402h18.311c0,0-0.082,1.244-1.047,3.707c-0.947,2.42-1.404,3.271-1.404,3.271
		h-18.123c0,0,0.732-1.021,1.594-3.605C724.236,48.652,724.199,47.402,724.199,47.402z"/>
	<path opacity="0.25" fill="#9B6000" d="M810.588,47.313h18.311c0,0-0.082,1.246-1.047,3.709c-0.947,2.42-1.404,3.271-1.404,3.271
		h-18.123c0,0,0.732-1.023,1.594-3.605C810.625,48.564,810.588,47.313,810.588,47.313z"/>
	<path opacity="0.25" fill="#9B6000" d="M833.773,47.287h18.311c0,0-0.082,1.244-1.047,3.707c-0.947,2.42-1.404,3.271-1.404,3.271
		H831.51c0,0,0.732-1.021,1.594-3.604C833.811,48.537,833.773,47.287,833.773,47.287z"/>
	<path opacity="0.25" fill="#9B6000" d="M857.727,47.402h18.311c0,0-0.082,1.244-1.047,3.707c-0.947,2.42-1.404,3.271-1.404,3.271
		h-18.123c0,0,0.732-1.021,1.594-3.605C857.764,48.652,857.727,47.402,857.727,47.402z"/>
	<path opacity="0.25" fill="#9B6000" d="M788.537,47.313h18.311c0,0-0.084,1.246-1.047,3.709c-0.947,2.42-1.406,3.271-1.406,3.271
		h-18.122c0,0,0.731-1.023,1.593-3.605C788.574,48.564,788.537,47.313,788.537,47.313z"/>
	<path opacity="0.25" fill="#9B6000" d="M767.218,47.313h16.354c0,0-0.186,0.844-0.834,3.668c-0.582,2.531-1.092,3.078-1.092,3.078
		l-14.824,0.004c0,0-0.191,0.23,0.276-3.26C767.396,48.584,767.218,47.313,767.218,47.313z"/>
	<path opacity="0.25" fill="#9B6000" d="M747.051,47.313h16.354c0,0-0.186,0.844-0.834,3.668c-0.582,2.531-1.092,3.078-1.092,3.078
		l-14.825,0.004c0,0-0.19,0.23,0.277-3.26C747.229,48.584,747.051,47.313,747.051,47.313z"/>
</g>
</svg>
